<svg xmlns="http://www.w3.org/2000/svg" width="8.56944in" height="2.31944in" viewBox="0 0 617 167"><defs><style>.cls-1{fill:#003260;}.cls-2{fill:#3fc3fc;}.cls-3{fill:#ff5a5a;}</style></defs><g id="Layer_2" data-name="Layer 2"><path class="cls-1" d="M52.56075,91.8731c0,18.1499-10.01025,28.27-22.55029,28.27-5.60987,0-11.43994-2.31006-14.8501-6.04981V141.3731H.2004V64.70269h14.96v4.62012c3.8501-4.18018,9.68018-5.83008,14.8501-5.83008C44.64083,63.49273,52.56075,75.813,52.56075,91.8731Zm-14.8501-.10986c0-10.01026-3.74023-15.18018-11.43994-15.18018-9.24023,0-12.54,6.48975-12.54,15.18018,0,8.57959,3.52,15.29,12.31983,15.29C33.86055,107.05327,37.71065,101.773,37.71065,91.76324Z"/><path class="cls-1" d="M72.24971,117.28326l-20.79-52.58057h16.5l12.21,35.53027L93.26,64.70269h16.38965L78.51973,141.3731H62.34932Z"/><path class="cls-2" d="M111.51925,80.65288c0-24.20019,15.07031-40.26025,37.07031-40.26025,22.22021,0,37.18017,16.06006,37.18017,40.26025,0,24.09034-15.18017,40.15039-37.18017,40.15039S111.51925,104.63286,111.51925,80.65288Zm58.63037,0c0-15.73-8.35987-25.41015-21.56006-25.41015-13.08985,0-21.56006,9.57031-21.56006,25.41015,0,15.73,8.47021,25.3003,21.56006,25.3003C161.78975,105.95318,170.14962,96.16314,170.14962,80.65288Z"/><path class="cls-3" d="M119.603,49.4096a36.62411,36.62411,0,0,1,6.50268-5.55335l-10.228,1.90992-10.34632,1.89416-5.13586.901-2.37488.38342c-1.20081-.48852-2.633-1.16125-3.99353-1.81213l-4.66437-2.25574c-3.12152-1.53564-6.24713-3.11328-9.36908-4.704C55.01973,27.36858,30.05764,14.2763,4.74508,1.83843L3.98385,3.13091c11.57922,8.07276,23.35388,15.81775,35.15948,23.526,11.85016,7.63672,23.72,15.23365,35.82025,22.53919,3.0232,1.834,6.05554,3.6582,9.1258,5.4624,1.53814.89929,3.0783,1.804,4.66131,2.68225,1.61591.88159,3.12866,1.72815,5.08875,2.63171.26507.11744.52777.2334.87506.36707.1568.06226.372.13892.59662.21289l.44024.12915c.134.03919.4646.11084.69049.14941a7.3714,7.3714,0,0,0,1.183.08729l.4721-.01844.55121-.04443.80719-.08521,2.75092-.35559,5.28528-.75891,5.72839-.86584A38.8262,38.8262,0,0,1,119.603,49.4096Zm-20.82471-.17737c-.03925-.00989-.1084-.03345-.18567-.06079.04352.0105.08.01977.08972.0227l.12305.03919C98.8207,49.23992,98.82711,49.24785,98.77828,49.23223Z"/><path class="cls-2" d="M248.468,91.8731c0,18.1499-10.01026,28.27-22.5503,28.27-5.60986,0-11.43994-2.31006-14.85009-6.04981V141.3731h-14.96V64.70269h14.96v4.62012c3.85009-4.18018,9.68017-5.83008,14.85009-5.83008C240.54805,63.49273,248.468,75.813,248.468,91.8731Zm-14.8501-.10986c0-10.01026-3.74024-15.18018-11.43994-15.18018-9.24024,0-12.54,6.48975-12.54,15.18018,0,8.57959,3.52,15.29,12.31982,15.29C229.76778,107.05327,233.61788,101.773,233.61788,91.76324Z"/><path class="cls-3" d="M206.42183,44.28252l.61219-.07849c.11016.17737.21972.35156.33.53125.86945,1.41113,1.75257,2.88342,2.62488,4.36658,2.46826,4.20459,4.90656,8.49475,7.33295,12.80469a26.27616,26.27616,0,0,1,8.59582-1.41382,24.93807,24.93807,0,0,1,9.367,1.73755c-.50183-.87207-.996-1.74475-1.49866-2.61682-3.56561-6.09522-7.12732-12.17786-10.86816-18.28894-.9419-1.53028-1.88874-3.06238-2.90393-4.62134-.51264-.7815-1.03388-1.56507-1.61969-2.39991-.29407-.41845-.605-.85058-.98774-1.34814-.18829-.245-.41534-.52917-.69726-.85742-.1861-.20789-.30506-.35059-.60687-.652-.11188-.11279-.26947-.26843-.53852-.49951a8.29355,8.29355,0,0,0-1.16772-.84412,8.80282,8.80282,0,0,0-2.93042-1.025,9.836,9.836,0,0,0-1.24341-.07886l-.74158.03186-.93969.08692-1.49939.18713-2.73432.40308-5.29553.85705c-13.98,2.34729-27.79791,4.90942-41.6521,7.45618l-.54828.10241a37.14864,37.14864,0,0,1,20.33331,10.63794Q189.24,46.84588,201.28524,45.0147Z"/><path class="cls-2" d="M275.08614,76.36285v25.08007c0,3.18994,1.31982,6.38037,6.81982,6.38037a22.90255,22.90255,0,0,0,6.81983-1.21044v11.7705a30.667,30.667,0,0,1-10.44971,1.75977c-9.68017,0-18.04-4.73-18.04-17.49024v-26.29h-8.80029V64.70269H260.236V55.46294l14.8501-11V64.70269h13.63965V76.36285Z"/><path class="cls-1" d="M293.23458,96.82281,308.635,92.9732c.88086,9.02,6.71094,13.75,14.96094,13.75,6.709,0,11.43945-3.3003,11.43945-9.46,0-4.40039-3.74024-7.37012-14.41016-11.66016-16.16992-6.49023-22-12.43018-22-23.87012,0-12.54,9.79-21.34033,24.41992-21.34033,10.56055,0,18.91993,4.84033,23.76075,14.41016l-12.87012,8.03027c-2.41992-5.72021-6.59961-8.69043-11.33008-8.69043s-8.4707,3.08008-8.4707,7.26025c0,4.39991,3.30078,7.14991,14.63086,11.54981,16.38965,6.38037,21.77929,11.99023,21.77929,22.88037,0,14.74023-11.5498,24.64014-27.16992,24.64014S295.54512,111.1231,293.23458,96.82281Z"/><path class="cls-1" d="M410.384,91.8731c0,18.1499-10.00976,28.27-22.5498,28.27-5.61035,0-11.44043-2.31006-14.85059-6.04981V141.3731h-14.96V64.70269h14.96v4.62012c3.85059-4.18018,9.68067-5.83008,14.85059-5.83008C402.46407,63.49273,410.384,75.813,410.384,91.8731Zm-14.85058-.10986c0-10.01026-3.73926-15.18018-11.43946-15.18018-9.24023,0-12.54,6.48975-12.54,15.18018,0,8.57959,3.51954,15.29,12.32032,15.29C391.6838,107.05327,395.53341,101.773,395.53341,91.76324Z"/><path class="cls-3" d="M563.18587,139.34612l-42.18072-1.26538-42.17249-1.26526-21.08313-.63244-10.54083-.31629-5.27051-.14844-2.63525-.07238a15.493,15.493,0,0,1-2.325-.22815c-3.348-.48059-6.839-1.088-10.27985-1.68091l-10.367-1.8374-20.748-3.7887-19.59949-3.53992v10.9314l18.04,2.47827,20.9566,2.724,10.50226,1.30786c3.52045.42017,6.98975.84485,10.62976,1.17774a27.44,27.44,0,0,0,2.93347.15136l2.64063-.00927,5.28119-.0221,10.56274-.06335,21.1239-.12683,42.24158-.25391,42.23328-.25415,42.2265-.3772.01794-1.5Z"/><path class="cls-3" d="M355.02364,120.78521l-.98651-.1781-12.40088-2.25769a33.24062,33.24062,0,0,1-18.26105,5.12378,36.67725,36.67725,0,0,1-17.54681-4.23816l-16.44287,4.22766c-3.38605.8562-6.7677,1.69556-10.11676,2.47546-1.67133.38684-3.33911.76172-4.96118,1.09156q-.805.16314-1.5824.30505c-.7959-1.22119-1.61243-2.53211-2.42536-3.85852-.36486-.59876-.72558-1.215-1.0888-1.82092-7.62946-2.8053-11.975-9.47364-11.975-19.00245v-1.81933l-2.57739-4.53308c-1.07056-1.90711-2.15692-3.81165-3.23163-5.71814.01087.43188.041.85278.041,1.29077,0,8.70239-2.085,15.46509-5.40393,20.44238q2.92758,4.98176,5.93682,9.945c1.84565,3.03918,3.70758,6.07251,5.66456,9.128.9826,1.53333,1.98254,3.058,3.10736,4.64905.57855.81018,1.142,1.59973,1.96563,2.59631.22046.26148.45124.53125.78479.881l.27149.276.3659.34412c.10266.09583.29908.26489.51764.43591a8.21385,8.21385,0,0,0,2.98926,1.50086c.37872.09192.63928.13659.96869.18579.37018.05285.49994.05481.6864.06787l.54413.0227.75476-.01464.58722-.04053a33.19262,33.19262,0,0,0,3.35632-.50562c.9751-.18994,1.89728-.3916,2.80768-.59875,1.8158-.415,3.57031-.85449,5.31586-1.30249,3.48279-.89917,6.90826-1.83728,10.32129-2.78736l20.31652-5.743,5.01563-1.37793c1.64246-.43786,3.33905-.88391,4.78375-1.19592l.58734-.11548c.72046.057,1.58966.15528,2.41956.24292l5.17377.61438c6.94238.87085,13.92761,1.73914,20.88928,2.7107l2.82794.38854Zm-84.94342,6.93884-.07092.00183a.38509.38509,0,0,1,.09533-.004l.00159.00013Zm53.41235.92908-.008.00256a.01748.01748,0,0,1-.01447-.00818.24243.24243,0,0,1,.05786.0022C323.482,128.64947,323.49971,128.65179,323.49257,128.65313Z"/><path class="cls-1" d="M465.60274,84.61285v34.32031H451.96212l-1.09961-6.27c-3.85059,5.5-9.90039,7.48-15.40039,7.48-11.77051,0-20.24024-7.58985-20.24024-18.26026,0-6.37988,2.86034-11,7.81055-13.52978,3.51953-1.76025,7.91992-2.53027,13.41992-2.53027h14.29981v-1.21c0-4.94971-3.62989-8.14014-9.79-8.14014-4.83985,0-9.46,2.09033-13.86035,7.04l-10.7793-9.02c6.59961-7.48,15.62012-11,25.2998-11C456.47188,63.49273,465.60274,71.63286,465.60274,84.61285Zm-14.85058,12.21h-12.21c-3.08008,0-5.16993.44043-6.49024,1.43017a4.38069,4.38069,0,0,0-1.97949,3.8501c0,3.2998,2.75,5.72021,7.80957,5.72021C444.8127,107.82329,450.6418,103.09331,450.75216,96.82281Z"/><path class="cls-1" d="M517.63106,66.793l-7.15039,13.31006a12.79106,12.79106,0,0,0-6.82031-1.87012c-6.92969,0-10.78027,4.50977-10.78027,14.41016v26.29h-14.96V64.70269h15.07032v8.58008a15.189,15.189,0,0,1,14.08008-9.79A18.88391,18.88391,0,0,1,517.63106,66.793Z"/><path class="cls-1" d="M515.65059,104.63286l11.76953-5.27978c1.32032,3.41016,3.41016,8.58008,10.78028,8.58008,5.38965,0,7.37012-2.75,7.37012-4.9502,0-8.35986-26.9502-3.41015-26.9502-23.1001,0-11.33007,10.00977-16.39013,20.12988-16.39013,9.68067,0,16.83008,4.62012,21.01075,11.88037L548.32052,81.753c-1.6504-2.97021-4.17969-6.93017-9.9004-6.93017-3.62988,0-5.71972,1.76025-5.71972,3.85009,0,7.7002,27.5,2.64014,27.5,22.77,0,13.09034-11.43945,18.7002-21.66992,18.7002C526.87032,120.14312,518.17989,112.66314,515.65059,104.63286Z"/><path class="cls-1" d="M616.301,96.82281H579.89083c.65918,5.72021,4.50976,9.79,12.31933,9.79a15.23261,15.23261,0,0,0,12.21-5.60987l10.34083,9.13037a29.17059,29.17059,0,0,1-22.66016,10.00977c-19.36035,0-27.06055-13.85986-27.06055-28.05029,0-13.85987,7.48047-28.6001,26.18067-28.6001,16.93945,0,25.41015,12.32031,25.41015,28.16015A45.0486,45.0486,0,0,1,616.301,96.82281ZM602.44063,85.49273c-.21972-5.93994-5.16992-9.56983-11.33008-9.56983-7.58984,0-10.66992,5.16993-11.33007,9.56983Z"/></g></svg>